<?xml version="1.0" encoding="utf-8"?>
<!-- Generator: Adobe Illustrator 23.0.2, SVG Export Plug-In . SVG Version: 6.00 Build 0)  -->
<svg class="monedin" version="1.1" id="Layer_1" xmlns="http://www.w3.org/2000/svg" xmlns:xlink="http://www.w3.org/1999/xlink" x="0px" y="0px"
	 viewBox="0 0 500 500" style="enable-background:new 0 0 500 500;" xml:space="preserve">
<style type="text/css">
	.st0{fill:none;stroke:#f7911c;stroke-width:6;stroke-miterlimit:10;}
	.st1{fill:none;stroke:#f7911c;stroke-width:30;stroke-miterlimit:10;}

	.monedin{
			filter: brightness(1.3) drop-shadow(0 0px 3px rgba(245, 145, 27, 0.1)) drop-shadow(0 0px 7px rgba(245, 145, 27, 0.8))
	}

	.monedin ellipse, .monedin path{
		stroke-dasharray: 851;
    	stroke-dashoffset: 851;
    	transition: 2s;
	}
	.mone1 ellipse, .mone1 path { transition-delay: .2s }
	.mone2 ellipse, .mone2 path { transition-delay: .5s }
	.mone3 ellipse, .mone3 path { transition-delay: .85s }
	.mone4 ellipse, .mone4 path { transition-delay: .5s }
	.mone5 ellipse, .mone5 path { transition-delay: 1.15s }
	.mone6 ellipse, .mone6 path { transition-delay: 1.15s }
	.mone7 ellipse, .mone7 path { transition-delay: 1s }





</style>
<g class="mone1">
	<ellipse class="st1" cx="168.4" cy="263.5" rx="119.2" ry="49.5"/>
	<path class="st1" d="M284.9,253.2l24.7,66c0,27.3-52.7,54.7-118.5,54.7c-59.6,0-110-24-119.2-49.5l-0.2-0.4l-20.4-51"/>
</g>
<g class="mone2">
	<path class="st1" d="M306.6,311.3l24.5,66c0,27.3-52.4,54.7-117.8,54.7c-59.2,0-109.3-24-118.4-49.5l-0.2-0.4l-20.3-51"/>
</g>
<g class="mone3">
	<path class="st1" d="M324.8,360.6l24.4,66c0,27.3-52,54.7-117,54.7c-58.8,0-108.6-24-117.7-49.5l-0.2-0.4l-20.1-51"/>
</g>
<g class="mone4">
	<ellipse class="st1" cx="231.9" cy="71.1" rx="119.2" ry="49.5"/>
	<path class="st1" d="M348.4,60.8l24.7,66c0,27.3-52.7,54.7-118.5,54.7c-59.6,0-110-24-119.2-49.5l-0.2-0.4l-20.4-51"/>
</g>
<g class="mone5">
	<path class="st1" d="M395.4,182.2l19.7,51.2c0,27.3-52,54.7-117,54.7c0,0,0.8,0,0,0"/>
</g>
<g class="mone7">
	<path class="st1" d="M415.1,233.4l20.8,55.1c0,27.3-52.4,54.7-117.8,54.7"/>
</g>
<g class="mone8">
	<path class="st1" d="M429.5,271.9l24.4,66c0,27.3-52,54.7-117,54.7"/>
</g>
<g class="mone6">
	<path class="st1" d="M185.6,214.5c-15.5-8.4-22.6-16.7-26.4-27.2l-0.2-0.4l-20.3-51"/>
	<path class="st1" d="M369.4,116.7l26,65.5c0,27.3-52.4,54.7-117.8,54.7c-5.5,0-5.6,0.2-11-0.2"/>
</g>
</svg>
